<svg width="64" height="64" viewBox="0 0 64 64" fill="none" xmlns="http://www.w3.org/2000/svg">
<g id="warning-alert-svgrepo-com(1) 1" clip-path="url(#clip0_37_1235)">
<path id="Vector" d="M64 32.0008C64 49.6753 49.6742 64.0005 32.0005 64C14.3258 64.0005 4.00784e-08 49.6753 4.00784e-08 32.0008C-0.00087496 14.3263 14.3258 0 32.0005 0C49.6742 0 64 14.3268 64 32.0008Z" fill="#EC5565"/>
<g id="Group">
<path id="Vector_2" d="M62.8353 40.5508C62.8164 40.529 62.7981 40.5068 62.7761 40.4871C62.7564 40.4651 62.7388 40.443 62.717 40.4228C62.6889 40.3925 62.6555 40.3706 62.6238 40.3443C62.6024 40.3185 33.0066 10.7218 32.9349 10.6678C32.8808 10.5958 32.8201 10.5351 32.7481 10.481C32.5743 10.2496 32.3107 10.0905 31.9994 10.0905C31.4734 10.0905 31.0469 10.5166 31.0469 11.0431V40.5731C31.0469 40.8849 31.2063 41.1484 31.4374 41.3219C31.4915 41.3939 49.0106 58.9245 49.0216 58.935C49.0335 58.9476 49.0448 58.9595 49.0573 58.9714C49.0676 58.9823 49.0774 58.9929 49.0885 59.0034C49.097 59.0123 49.1046 59.0213 49.1136 59.0299C49.1136 59.0299 49.1156 59.0315 49.1164 59.0324C55.7304 54.8361 60.6959 48.2834 62.8353 40.5508Z" fill="#D94453"/>
<path id="Vector_3" d="M33.6225 50.9332C33.5642 50.8666 33.5029 50.804 33.4359 50.7466C33.0862 50.3465 32.5757 50.0991 32.0008 50.0991H31.9664C30.9155 50.0991 30.0764 50.9432 30.095 52.038C30.1045 52.622 30.3595 53.1137 30.7504 53.4485C30.8087 53.5151 40.0227 62.7304 40.0898 62.7879C40.1333 62.8376 40.1812 62.8824 40.2292 62.9272C41.6099 62.5609 42.9539 62.1051 44.2549 61.5654C44.2005 61.5045 33.6897 50.9907 33.6225 50.9332Z" fill="#D94453"/>
</g>
<g id="Group_2">
<path id="Vector_4" d="M32.0009 50.0991H31.9664C30.9155 50.0991 30.0764 50.9432 30.095 52.0382C30.1128 53.1236 30.9619 53.9096 31.9989 53.9096H32.0334C33.0843 53.8901 33.9234 53.0655 33.9048 51.9705C33.8863 50.8849 33.038 50.0991 32.0009 50.0991Z" fill="#F4F6F9"/>
<path id="Vector_5" d="M32.0004 41.5259C32.5264 41.5259 32.9529 41.0999 32.9529 40.5734V11.0433C32.9529 10.5168 32.5264 10.0908 32.0004 10.0908C31.4744 10.0908 31.0479 10.5168 31.0479 11.0433V40.5733C31.0479 41.0998 31.4744 41.5259 32.0004 41.5259Z" fill="#F4F6F9"/>
</g>
</g>
<defs>
<clipPath id="clip0_37_1235">
<rect width="64" height="64" fill="white"/>
</clipPath>
</defs>
</svg>
