<svg width="64" height="64" viewBox="0 0 64 64" fill="none" xmlns="http://www.w3.org/2000/svg">
<g id="checked-tick-svgrepo-com 1" clip-path="url(#clip0_36_1206)">
<path id="Vector" d="M0 32.0008C0 49.6753 14.3257 64.0005 31.9995 64C49.6742 64.0005 64 49.6753 64 32.0008C64.0011 14.3263 49.6742 0 31.9995 0C14.3257 0 0 14.3268 0 32.0008Z" fill="#9ED368"/>
<path id="Vector_2" d="M64.0002 32.0006C64.0004 27.6231 63.1194 23.4522 61.5286 19.6523C61.4923 19.6075 61.4591 19.5601 61.41 19.5247C61.4024 19.5191 53.0286 11.1543 53.0209 11.1491C52.9685 11.0797 52.916 11.0097 52.8414 10.9562C52.443 10.6706 51.892 10.7621 51.608 11.159L23.0524 50.9638C23.0524 50.9638 22.4995 50.411 22.4993 50.4107C19.1665 47.0792 15.8349 43.7464 12.5026 40.4142L12.2988 40.2102C11.9535 39.865 11.3944 39.865 11.049 40.2102C10.7036 40.5555 10.7038 41.1146 11.049 41.46C11.049 41.46 22.5376 52.9512 22.5381 52.9516L33.3506 63.7641L33.5474 63.961C50.503 63.1538 64.0002 49.1559 64.0002 32.0006Z" fill="#8BC052"/>
<path id="Vector_3" d="M52.8412 10.9562C52.443 10.6706 51.8918 10.7621 51.6078 11.159L23.0511 50.9655L12.2986 40.2104C11.9534 39.8651 11.3942 39.8651 11.049 40.2104C10.7037 40.5556 10.7037 41.1147 11.049 41.46L22.5376 52.9512C22.7037 53.1177 22.929 53.2101 23.1624 53.2101C23.1861 53.2101 23.2102 53.2094 23.2344 53.2076C23.4929 53.186 23.7292 53.0522 23.8804 52.8417L53.044 12.1895C53.3282 11.7925 53.2377 11.2411 52.8412 10.9562Z" fill="#F4F6F9"/>
</g>
<defs>
<clipPath id="clip0_36_1206">
<rect width="64" height="64" fill="white"/>
</clipPath>
</defs>
</svg>
