<svg width="64" height="64" viewBox="0 0 64 64" fill="none" xmlns="http://www.w3.org/2000/svg">
<g id="left-quote" clip-path="url(#clip0_73_1336)">
<path id="Vector" d="M0 32.0008C0 49.6753 14.3258 64.0005 31.9995 64C49.6742 64.0005 64 49.6753 64 32.0008C64.0011 14.3263 49.6742 0 31.9995 0C14.3258 0 0 14.3268 0 32.0008Z" fill="#AB91EA"/>
<path id="Vector_2" d="M63.8876 34.6754C58.7851 29.5702 44.1931 15.0479 44.1859 15.0417C44.0235 14.8501 43.7896 14.7219 43.5185 14.7219C38.1443 14.7219 33.772 19.2076 33.772 24.7212C33.772 25.6986 33.7614 26.6771 33.7765 27.654C33.7394 27.6187 21.2602 15.152 21.2496 15.1429C21.2181 15.1057 21.1856 15.0732 21.1484 15.0416C20.986 14.85 20.7523 14.7217 20.481 14.7217C15.1066 14.7217 10.7344 19.2075 10.7344 24.7211V39.5314C10.7344 42.2441 11.8506 44.6994 13.6453 46.4681C13.6788 46.5021 31.1494 63.9722 31.1556 63.9785C31.1781 63.979 31.2005 63.98 31.2231 63.9806C31.2264 63.9839 31.2294 63.9869 31.2326 63.9901C31.4875 63.9961 31.7429 63.9999 31.9993 63.9999C48.7731 64.0005 62.5288 51.0977 63.8876 34.6754Z" fill="#947ADB"/>
<g id="Group">
<path id="Vector_3" d="M20.481 29.7847C17.185 29.7847 14.2713 31.4334 12.5065 33.945V24.721C12.5065 20.1847 16.0836 16.4937 20.481 16.4937C20.9708 16.4937 21.367 16.097 21.367 15.6077C21.367 15.1185 20.9708 14.7217 20.481 14.7217C15.1068 14.7217 10.7344 19.2075 10.7344 24.7211V39.5314C10.7344 44.9056 15.1066 49.278 20.481 49.278C25.8554 49.278 30.2276 44.9057 30.2276 39.5314C30.2276 34.157 25.8554 29.7847 20.481 29.7847Z" fill="#F4F6F9"/>
<path id="Vector_4" d="M43.5181 29.7847C40.2221 29.7847 37.3084 31.4334 35.5436 33.945V24.721C35.5436 20.1847 39.1207 16.4937 43.5181 16.4937C44.0079 16.4937 44.4041 16.097 44.4041 15.6077C44.4041 15.1185 44.0079 14.7217 43.5181 14.7217C38.1439 14.7217 33.7715 19.2075 33.7715 24.7211V39.5314C33.7715 44.9056 38.1437 49.278 43.5181 49.278C48.8925 49.278 53.2647 44.9057 53.2647 39.5314C53.2647 34.157 48.8925 29.7847 43.5181 29.7847Z" fill="#F4F6F9"/>
</g>
</g>
<defs>
<clipPath id="clip0_73_1336">
<rect width="64" height="64" fill="white"/>
</clipPath>
</defs>
</svg>
