<svg width="32" height="32" viewBox="0 0 32 32" fill="none" xmlns="http://www.w3.org/2000/svg">
<g id="download-icon 3">
<g id="SVGRepo_iconCarrier">
<path id="Vector" d="M28.7886 21.716L28.4354 21.3621C28.4094 21.388 28.3786 21.4086 28.3446 21.4226C28.3107 21.4366 28.2744 21.4438 28.2377 21.4438L28.2372 21.4438L19.2616 21.4438L18.7616 21.4438L18.7616 21.9438L18.7616 27.1713C18.7616 27.2794 18.7015 27.376 18.606 27.4234L18.6055 27.4237C18.5107 27.4708 18.3956 27.4602 18.3104 27.3955L18.3104 27.3955L3.58501 16.2245L3.58496 16.2244C3.55033 16.1982 3.52224 16.1642 3.50291 16.1253C3.48358 16.0864 3.47351 16.0435 3.4735 16L2.9735 16.0001M28.7886 21.716L28.435 21.3625C28.4887 21.3088 28.5185 21.2361 28.5186 21.1625C28.5186 21.1625 28.5186 21.1625 28.5186 21.1625L28.5165 10.9132L28.5165 10.9131C28.5165 10.7579 28.3903 10.6318 28.2351 10.6318L19.2616 10.6318L18.7616 10.6318L18.7616 10.1318L18.7616 4.82505C18.7616 4.7169 18.7015 4.62039 18.6059 4.57295L18.6052 4.5726C18.5106 4.52545 18.3957 4.53603 18.3104 4.60068C18.3104 4.60069 18.3104 4.60071 18.3104 4.60072L3.58521 15.7742C3.58495 15.7744 3.58469 15.7746 3.58443 15.7748C3.55007 15.8014 3.52222 15.8354 3.503 15.8743C3.48363 15.9136 3.47354 15.9567 3.4735 16.0005L2.9735 16.0001M28.7886 21.716C28.9351 21.5694 29.0186 21.37 29.0186 21.1625L19.2616 22.4438L19.2616 21.9438L19.7616 21.9438L28.2372 21.9438C28.3396 21.9439 28.441 21.9238 28.5356 21.8847C28.6302 21.8456 28.7162 21.7883 28.7886 21.716ZM2.9735 16.0001C2.97352 16.1207 3.00145 16.2397 3.05511 16.3477C3.10878 16.4558 3.18671 16.5499 3.28281 16.6228M2.9735 16.0001C2.9736 15.8797 3.00136 15.761 3.05465 15.653C3.10793 15.5451 3.18532 15.4508 3.28083 15.3775L18.0082 4.20237C18.2443 4.02329 18.5626 3.99276 18.8282 4.12507L3.28281 16.6228M3.28281 16.6228L18.0082 27.7938C18.2443 27.973 18.5627 28.0034 18.8282 27.8713L3.28281 16.6228Z" stroke="black"/>
<path id="Vector_2" d="M6 16.0016L18 25L18 21.5C18 20.713 18.0087 20.713 18.4635 20.713L27 20.713C26.9989 19.3979 26.9978 12.6863 26.9978 11.3711L18.4635 11.3711C18.0087 11.3711 18 11.3711 18 10.5L18 7L6 16.0016Z" fill="#7F88FE" stroke="#252631" stroke-width="0.00032"/>
<path id="Vector_3" d="M18 6C15.9761 7.55792 6.36735 14.9509 5 16.0021C6.36735 17.0535 15.9761 24.4422 18 26L18 24.6319L6.77091 16.0021L18 7.36822L18 6Z" fill="#A7E3AB" stroke="#252631" stroke-width="0.00032"/>
<path id="Vector_4" d="M28 11L28 21L27 21L27 11L28 11Z" fill="#A7E3AB" stroke="#252631" stroke-width="0.00032"/>
</g>
</g>
</svg>
