<svg width="1920" height="4096" viewBox="0 0 1920 4096" fill="none" xmlns="http://www.w3.org/2000/svg">
<g id="Frame 7" clip-path="url(#clip0_197_3673)">
<rect id="Rectangle 48" width="1920" height="4096" fill="#F9F7E8"/>
<g id="Group 16">
<circle id="Ellipse 62" cx="319" cy="402" r="8" fill="#A8AEFF" fill-opacity="0.5"/>
<circle id="Ellipse 67" cx="319" cy="482" r="8" fill="#A8AEFF" fill-opacity="0.5"/>
<circle id="Ellipse 72" cx="319" cy="562" r="8" fill="#A8AEFF" fill-opacity="0.5"/>
<circle id="Ellipse 77" cx="319" cy="642" r="8" fill="#A8AEFF" fill-opacity="0.5"/>
<circle id="Ellipse 82" cx="319" cy="722" r="8" fill="#A8AEFF" fill-opacity="0.5"/>
<circle id="Ellipse 87" cx="319" cy="802" r="8" fill="#A8AEFF" fill-opacity="0.5"/>
<circle id="Ellipse 92" cx="319" cy="882" r="8" fill="#A8AEFF" fill-opacity="0.5"/>
<circle id="Ellipse 63" cx="239" cy="402" r="8" fill="#A8AEFF" fill-opacity="0.5"/>
<circle id="Ellipse 68" cx="239" cy="482" r="8" fill="#A8AEFF" fill-opacity="0.5"/>
<circle id="Ellipse 73" cx="239" cy="562" r="8" fill="#A8AEFF" fill-opacity="0.5"/>
<circle id="Ellipse 78" cx="239" cy="642" r="8" fill="#A8AEFF" fill-opacity="0.5"/>
<circle id="Ellipse 83" cx="239" cy="722" r="8" fill="#A8AEFF" fill-opacity="0.5"/>
<circle id="Ellipse 88" cx="239" cy="802" r="8" fill="#A8AEFF" fill-opacity="0.5"/>
<circle id="Ellipse 93" cx="239" cy="882" r="8" fill="#A8AEFF" fill-opacity="0.5"/>
<circle id="Ellipse 64" cx="159" cy="402" r="8" fill="#A8AEFF" fill-opacity="0.5"/>
<circle id="Ellipse 69" cx="159" cy="482" r="8" fill="#A8AEFF" fill-opacity="0.5"/>
<circle id="Ellipse 74" cx="159" cy="562" r="8" fill="#A8AEFF" fill-opacity="0.5"/>
<circle id="Ellipse 79" cx="159" cy="642" r="8" fill="#A8AEFF" fill-opacity="0.5"/>
<circle id="Ellipse 84" cx="159" cy="722" r="8" fill="#A8AEFF" fill-opacity="0.5"/>
<circle id="Ellipse 89" cx="159" cy="802" r="8" fill="#A8AEFF" fill-opacity="0.5"/>
<circle id="Ellipse 94" cx="159" cy="882" r="8" fill="#A8AEFF" fill-opacity="0.5"/>
<circle id="Ellipse 65" cx="79" cy="402" r="8" fill="#A8AEFF" fill-opacity="0.5"/>
<circle id="Ellipse 70" cx="79" cy="482" r="8" fill="#A8AEFF" fill-opacity="0.5"/>
<circle id="Ellipse 75" cx="79" cy="562" r="8" fill="#A8AEFF" fill-opacity="0.5"/>
<circle id="Ellipse 80" cx="79" cy="642" r="8" fill="#A8AEFF" fill-opacity="0.5"/>
<circle id="Ellipse 85" cx="79" cy="722" r="8" fill="#A8AEFF" fill-opacity="0.5"/>
<circle id="Ellipse 90" cx="79" cy="802" r="8" fill="#A8AEFF" fill-opacity="0.5"/>
<circle id="Ellipse 95" cx="79" cy="882" r="8" fill="#A8AEFF" fill-opacity="0.5"/>
<circle id="Ellipse 66" cx="-1" cy="402" r="8" fill="#A8AEFF" fill-opacity="0.5"/>
<circle id="Ellipse 71" cx="-1" cy="482" r="8" fill="#A8AEFF" fill-opacity="0.5"/>
<circle id="Ellipse 76" cx="-1" cy="562" r="8" fill="#A8AEFF" fill-opacity="0.5"/>
<circle id="Ellipse 81" cx="-1" cy="642" r="8" fill="#A8AEFF" fill-opacity="0.5"/>
<circle id="Ellipse 86" cx="-1" cy="722" r="8" fill="#A8AEFF" fill-opacity="0.5"/>
<circle id="Ellipse 91" cx="-1" cy="802" r="8" fill="#A8AEFF" fill-opacity="0.5"/>
<circle id="Ellipse 96" cx="-1" cy="882" r="8" fill="#A8AEFF" fill-opacity="0.5"/>
</g>
<g id="Group 17">
<circle id="Ellipse 62_2" cx="1440" cy="2958" r="8" transform="rotate(-90 1440 2958)" fill="#A8AEFF" fill-opacity="0.5"/>
<circle id="Ellipse 67_2" cx="1520" cy="2958" r="8" transform="rotate(-90 1520 2958)" fill="#A8AEFF" fill-opacity="0.5"/>
<circle id="Ellipse 72_2" cx="1600" cy="2958" r="8" transform="rotate(-90 1600 2958)" fill="#A8AEFF" fill-opacity="0.5"/>
<circle id="Ellipse 77_2" cx="1680" cy="2958" r="8" transform="rotate(-90 1680 2958)" fill="#A8AEFF" fill-opacity="0.5"/>
<circle id="Ellipse 82_2" cx="1760" cy="2958" r="8" transform="rotate(-90 1760 2958)" fill="#A8AEFF" fill-opacity="0.5"/>
<circle id="Ellipse 87_2" cx="1840" cy="2958" r="8" transform="rotate(-90 1840 2958)" fill="#A8AEFF" fill-opacity="0.5"/>
<circle id="Ellipse 92_2" cx="1920" cy="2958" r="8" transform="rotate(-90 1920 2958)" fill="#A8AEFF" fill-opacity="0.5"/>
<circle id="Ellipse 63_2" cx="1440" cy="3038" r="8" transform="rotate(-90 1440 3038)" fill="#A8AEFF" fill-opacity="0.5"/>
<circle id="Ellipse 68_2" cx="1520" cy="3038" r="8" transform="rotate(-90 1520 3038)" fill="#A8AEFF" fill-opacity="0.5"/>
<circle id="Ellipse 73_2" cx="1600" cy="3038" r="8" transform="rotate(-90 1600 3038)" fill="#A8AEFF" fill-opacity="0.5"/>
<circle id="Ellipse 78_2" cx="1680" cy="3038" r="8" transform="rotate(-90 1680 3038)" fill="#A8AEFF" fill-opacity="0.5"/>
<circle id="Ellipse 83_2" cx="1760" cy="3038" r="8" transform="rotate(-90 1760 3038)" fill="#A8AEFF" fill-opacity="0.5"/>
<circle id="Ellipse 88_2" cx="1840" cy="3038" r="8" transform="rotate(-90 1840 3038)" fill="#A8AEFF" fill-opacity="0.5"/>
<circle id="Ellipse 93_2" cx="1920" cy="3038" r="8" transform="rotate(-90 1920 3038)" fill="#A8AEFF" fill-opacity="0.5"/>
<circle id="Ellipse 64_2" cx="1440" cy="3118" r="8" transform="rotate(-90 1440 3118)" fill="#A8AEFF" fill-opacity="0.5"/>
<circle id="Ellipse 69_2" cx="1520" cy="3118" r="8" transform="rotate(-90 1520 3118)" fill="#A8AEFF" fill-opacity="0.5"/>
<circle id="Ellipse 74_2" cx="1600" cy="3118" r="8" transform="rotate(-90 1600 3118)" fill="#A8AEFF" fill-opacity="0.5"/>
<circle id="Ellipse 79_2" cx="1680" cy="3118" r="8" transform="rotate(-90 1680 3118)" fill="#A8AEFF" fill-opacity="0.5"/>
<circle id="Ellipse 84_2" cx="1760" cy="3118" r="8" transform="rotate(-90 1760 3118)" fill="#A8AEFF" fill-opacity="0.5"/>
<circle id="Ellipse 89_2" cx="1840" cy="3118" r="8" transform="rotate(-90 1840 3118)" fill="#A8AEFF" fill-opacity="0.5"/>
<circle id="Ellipse 94_2" cx="1920" cy="3118" r="8" transform="rotate(-90 1920 3118)" fill="#A8AEFF" fill-opacity="0.5"/>
<circle id="Ellipse 65_2" cx="1440" cy="3198" r="8" transform="rotate(-90 1440 3198)" fill="#A8AEFF" fill-opacity="0.5"/>
<circle id="Ellipse 70_2" cx="1520" cy="3198" r="8" transform="rotate(-90 1520 3198)" fill="#A8AEFF" fill-opacity="0.5"/>
<circle id="Ellipse 75_2" cx="1600" cy="3198" r="8" transform="rotate(-90 1600 3198)" fill="#A8AEFF" fill-opacity="0.5"/>
<circle id="Ellipse 80_2" cx="1680" cy="3198" r="8" transform="rotate(-90 1680 3198)" fill="#A8AEFF" fill-opacity="0.5"/>
<circle id="Ellipse 85_2" cx="1760" cy="3198" r="8" transform="rotate(-90 1760 3198)" fill="#A8AEFF" fill-opacity="0.5"/>
<circle id="Ellipse 90_2" cx="1840" cy="3198" r="8" transform="rotate(-90 1840 3198)" fill="#A8AEFF" fill-opacity="0.5"/>
<circle id="Ellipse 95_2" cx="1920" cy="3198" r="8" transform="rotate(-90 1920 3198)" fill="#A8AEFF" fill-opacity="0.5"/>
<circle id="Ellipse 66_2" cx="1440" cy="3278" r="8" transform="rotate(-90 1440 3278)" fill="#A8AEFF" fill-opacity="0.5"/>
<circle id="Ellipse 71_2" cx="1520" cy="3278" r="8" transform="rotate(-90 1520 3278)" fill="#A8AEFF" fill-opacity="0.5"/>
<circle id="Ellipse 76_2" cx="1600" cy="3278" r="8" transform="rotate(-90 1600 3278)" fill="#A8AEFF" fill-opacity="0.5"/>
<circle id="Ellipse 81_2" cx="1680" cy="3278" r="8" transform="rotate(-90 1680 3278)" fill="#A8AEFF" fill-opacity="0.5"/>
<circle id="Ellipse 86_2" cx="1760" cy="3278" r="8" transform="rotate(-90 1760 3278)" fill="#A8AEFF" fill-opacity="0.5"/>
<circle id="Ellipse 91_2" cx="1840" cy="3278" r="8" transform="rotate(-90 1840 3278)" fill="#A8AEFF" fill-opacity="0.5"/>
<circle id="Ellipse 96_2" cx="1920" cy="3278" r="8" transform="rotate(-90 1920 3278)" fill="#A8AEFF" fill-opacity="0.5"/>
</g>
<line id="Line 12" opacity="0.5" x1="-263.657" y1="4057.34" x2="681.343" y2="3112.34" stroke="#A8AEFF" stroke-width="16"/>
<line id="Line 13" opacity="0.5" x1="-225.657" y1="4090.34" x2="843.343" y2="3021.34" stroke="#FB7473" stroke-width="16"/>
<line id="Line 14" opacity="0.5" x1="-246.343" y1="4075.03" x2="759.657" y2="3069.03" stroke="#A7E3AB" stroke-width="16"/>
<line id="Line 15" opacity="0.5" x1="2318.34" y1="1344.66" x2="1373.34" y2="399.657" stroke="#A8AEFF" stroke-width="16"/>
<line id="Line 16" opacity="0.5" x1="2351.34" y1="1306.66" x2="1282.34" y2="237.657" stroke="#FB7473" stroke-width="16"/>
<line id="Line 17" opacity="0.5" x1="2336.03" y1="1327.34" x2="1330.03" y2="321.343" stroke="#A7E3AB" stroke-width="16"/>
<circle id="Ellipse 97" cx="959.5" cy="3745.5" r="166.5" stroke="#A7E3AB" stroke-width="2"/>
<path id="Vector 1" opacity="0.5" d="M-164 2411L596.545 2355.94C631.353 2353.42 663.623 2336.8 685.883 2309.92L1046.1 1874.99C1065.35 1851.75 1092.2 1836.05 1121.89 1830.68L2021 1668" stroke="#A8AEFF" stroke-width="16"/>
<path id="Vector 2" opacity="0.5" d="M-149 2439L611.158 2383.95C645.974 2381.43 678.25 2364.79 700.51 2337.91L1060.54 1903C1079.79 1879.75 1106.63 1864.05 1136.34 1858.67L2035 1696" stroke="#A7E3AB" stroke-width="16"/>
<path id="Vector 3" opacity="0.5" d="M-133 2464L627.545 2408.94C662.353 2406.42 694.623 2389.8 716.883 2362.92L1077.1 1927.99C1096.35 1904.75 1123.2 1889.05 1152.89 1883.68L2052 1721" stroke="#FB7473" stroke-width="16"/>
<path id="Star 1" opacity="0.5" d="M489.277 1391.98L530.791 1476.1C532.102 1478.75 534.636 1480.59 537.568 1481.02L630.397 1494.51C636.138 1495.34 638.431 1502.4 634.276 1506.45L567.105 1571.92C564.983 1573.99 564.015 1576.97 564.516 1579.89L580.373 1672.34C581.354 1678.06 575.352 1682.42 570.217 1679.72L487.188 1636.07C484.566 1634.69 481.434 1634.69 478.812 1636.07L395.783 1679.72C390.648 1682.42 384.646 1678.06 385.627 1672.34L401.484 1579.89C401.985 1576.97 401.017 1573.99 398.895 1571.92L331.724 1506.45C327.569 1502.4 329.862 1495.34 335.603 1494.51L428.432 1481.02C431.364 1480.59 433.898 1478.75 435.209 1476.1L476.723 1391.98C479.291 1386.78 486.709 1386.78 489.277 1391.98Z" stroke="#FB7473" stroke-width="2"/>
</g>
<defs>
<clipPath id="clip0_197_3673">
<rect width="1920" height="4096" fill="white"/>
</clipPath>
</defs>
</svg>
