<svg width="32" height="32" viewBox="0 0 32 32" fill="none" xmlns="http://www.w3.org/2000/svg">
<g id="download-icon 2">
<g id="SVGRepo_iconCarrier">
<path id="Vector" d="M21.716 3.21137L21.3621 3.56463C21.388 3.5906 21.4086 3.62144 21.4226 3.65536C21.4366 3.68929 21.4438 3.72564 21.4438 3.76235V3.7628V12.7384V13.2384H21.9438H27.1713C27.2794 13.2384 27.376 13.2985 27.4234 13.394L27.4237 13.3945C27.4708 13.4893 27.4602 13.6044 27.3955 13.6896L27.3955 13.6896L16.2245 28.415L16.2244 28.415C16.1982 28.4497 16.1642 28.4778 16.1253 28.4971C16.0864 28.5164 16.0435 28.5265 16 28.5265L16.0001 29.0265M21.716 3.21137L21.3625 3.56504C21.3088 3.51132 21.2361 3.48146 21.1625 3.48145C21.1625 3.48145 21.1625 3.48145 21.1625 3.48145L10.9132 3.48353H10.9131C10.7579 3.48353 10.6318 3.60965 10.6318 3.76488V12.7384V13.2384H10.1318H4.82505C4.7169 13.2384 4.6204 13.2985 4.57295 13.3941L4.5726 13.3948C4.52545 13.4894 4.53604 13.6043 4.60068 13.6896C4.60069 13.6896 4.60071 13.6896 4.60072 13.6896L15.7742 28.4148C15.7744 28.4151 15.7746 28.4153 15.7748 28.4156C15.8014 28.4499 15.8354 28.4778 15.8743 28.497C15.9136 28.5164 15.9567 28.5265 16.0005 28.5265L16.0001 29.0265M21.716 3.21137C21.5694 3.06489 21.37 2.98145 21.1625 2.98145L22.4438 12.7384H21.9438V12.2384V3.7628C21.9439 3.66042 21.9238 3.55904 21.8847 3.46442C21.8456 3.36981 21.7883 3.28382 21.716 3.21137ZM16.0001 29.0265C16.1207 29.0265 16.2397 28.9985 16.3477 28.9449C16.4558 28.8912 16.5499 28.8133 16.6228 28.7172M16.0001 29.0265C15.8797 29.0264 15.761 28.9986 15.653 28.9454C15.5451 28.8921 15.4508 28.8147 15.3775 28.7192L4.20237 13.9918C4.02329 13.7557 3.99276 13.4374 4.12507 13.1718L16.6228 28.7172M16.6228 28.7172L27.7938 13.9918C27.973 13.7557 28.0035 13.4373 27.8713 13.1718L16.6228 28.7172Z" stroke="black"/>
<path id="Vector_2" d="M16.0016 26L25 14H21.5C20.713 14 20.713 13.9913 20.713 13.5365V5C19.3979 5.00111 12.6863 5.00219 11.3711 5.00219V13.5365C11.3711 13.9913 11.3711 14 10.5 14H7L16.0016 26Z" fill="#7F88FE" stroke="#252631" stroke-width="0.00032"/>
<path id="Vector_3" d="M6 14C7.55792 16.0239 14.9509 25.6327 16.0021 27C17.0535 25.6327 24.4422 16.0239 26 14H24.6319L16.0021 25.2291L7.36822 14H6Z" fill="#A7E3AB" stroke="#252631" stroke-width="0.00032"/>
<path id="Vector_4" d="M11 4H21V5H11V4Z" fill="#A7E3AB" stroke="#252631" stroke-width="0.00032"/>
</g>
</g>
</svg>
