<?xml version="1.0" encoding="UTF-8"?>
<svg id="Layer_2" data-name="Layer 2" xmlns="http://www.w3.org/2000/svg" viewBox="0 0 939.56 639.86">
  <defs>
    <style>
      .cls-1 {
        fill: #b92e45;
      }
    </style>
  </defs>
  <g id="Layer_1-2" data-name="Layer 1">
    <path class="cls-1" d="m889.56,553.26l-169.43-293.46-50.01-86.61-49.99-86.6L570.13,0h-.01l-49.99,86.59-50.01,86.61-50,86.6-169.43,293.46h-99.97l85.25-147.66,49.81-86.27-50.09-86.1-85.31-146.64h269.78L470.16,0H0l50.38,86.59,135.5,232.91-134.97,233.76L.91,639.86h499.79l50-86.6,19.42-33.65,19.43,33.65,50,86.6h300.01l-50-86.6Zm-200.01,0l-69.43-120.25-50-86.61-50,86.61-69.43,120.25h-100l119.43-206.86,50-86.6,50.01-86.61,49.99,86.6,50.01,86.61,119.43,206.86h-100.01Z"/>
  </g>
</svg>