<?xml version="1.0" encoding="UTF-8"?>
<svg id="Layer_2" data-name="Layer 2" xmlns="http://www.w3.org/2000/svg" viewBox="0 0 1452.45 1452.45">
  <defs>
    <style>
      .cls-1 {
        fill: #f0fffd;
      }

      .cls-2 {
        fill: #3c2415;
      }

      .cls-3 {
        fill: none;
      }

      .cls-4 {
        fill: #ffccb5;
      }
    </style>
  </defs>
  <g id="Layer_2-2" data-name="Layer 2">
    <rect class="cls-3" width="1452.45" height="1452.45"/>
    <g id="Layer_1-2" data-name="Layer 1-2">
      <g>
        <path class="cls-1" d="m677.7,687.79c-1.42,36.35-2.31,58.66-16.77,82.26-13.39,21.85-31.3,33.2-38.44,37.58-29.35,18.02-58.01,18.4-93.73,18.41-47.5.01-71.2-.06-93.38-15.17-41.19-28.03-45.37-81.41-46.26-92.76-1.4-17.95-4.17-52.88,17.85-77.27,18.72-20.74,49.76-21.67,111.66-23.68,0,0,43.88-1.41,101.17,10.49,29.62,6.16,46.37,12.5,54.41,27.19,1.91,3.5,4.42,9.45,3.49,32.95h0Z"/>
        <path class="cls-1" d="m1079.76,707.78c-.56,11.37-3.14,64.84-43.47,94.1-21.72,15.76-45.41,16.54-92.88,17.95-35.71,1.06-64.37,1.54-94.25-15.59-7.25-4.16-25.5-14.97-39.54-36.41-15.17-23.16-16.71-45.44-19.23-81.73-1.63-23.45.7-29.48,2.52-33.04,7.58-14.92,24.13-21.76,53.56-28.8,56.9-13.61,100.81-13.51,100.81-13.51,61.94.15,92.98.15,112.32,20.32,22.72,23.72,21.02,58.72,20.16,76.71h0Z"/>
        <path class="cls-4" d="m1108.36,660.41c-.04.53-.09,1.06-.13,1.6-.27,2.76-1.28,12.61-2.19,21.73v.02c-1.05,7.09-1.42,12.51-1.58,16.39v.02c-.01.18-.02.35-.03.48v.47c-4.5,49.98-6.02,70.22-6.18,76.42,0,.1,0,.48-.03,1.02-.09,2.92-.36,10.24-1.33,19.99-.13,1.28-.28,2.54-.44,3.94-1.42,11.36-3.32,20.16-5.5,30.1-1.77,6.67-4.49,17.18-7.49,30.13-10.26,44.28-8.28,80.73-24.87,126.44-12.34,33.99-30.31,57.04-45.71,76.78-11.99,15.38-27.33,29.92-58.01,58.99-2.83,2.69-6.04,5.71-9.58,8.97.53-12.27-.3-29.24-6.11-48.3-7.65-25.05-19.8-41.37-26.75-49.61-7.94-9.38-15.82-18.72-29.39-25.56-16.05-8.09-21.65-3.41-42.15-9.37-30.86-8.98-30.55-23.2-50.36-24.25-23.04-1.22-26.28,17.86-51.73,18.78-26.01.94-30.54-18.7-54.25-16.19-18.9,2-17.97,14.68-50.59,27.76-20.17,8.08-24.62,4.88-38.8,13.58-15.93,9.78-24.53,22.54-30.53,31.46-13.34,19.81-17.34,38.2-21.18,55.32-2.38,10.59-4.83,25.05-5.45,42.58-6.14-3.84-16.13-9.98-27.07-17.67-32.37-22.76-48.56-34.14-59.8-46.99-28.55-32.66-39.66-67.05-46.5-88.23-7.63-23.65-32.76-111.51-37.06-121.39-.51-1.19-3.24-7.34-6.26-15.9-3.08-8.68-4.85-15.26-5.29-16.91-1.03-3.88-2.83-11.11-4.36-20.93-3.37-21.66-4.16-47.55-5.13-82.5,0-1.13,0-2.23,0-3.29,0-4.22-.03-9.81-.57-16.96-.04-1.4-.07-2.7-.1-3.8-.41-8.78-.94-22.42-1.02-39.37,3.76,1.59,9.36,4.52,14.33,9.9,7.46,8.07,9.46,17.28,10.31,20.85,3.51,14.67,12.27,51.27,22.08,71.67,14.15,29.47,39.53,44.04,43.7,46.36,19.47,10.84,37.65,12.13,64.22,14.04,13.82.99,26.87.39,52.99-.8,22.24-1.01,33.36-1.52,41.95-3.63,24.34-5.98,41.65-18.3,50.62-25.76,21.68-18.03,31.39-38.24,33.37-42.5,6.88-14.81,10.74-31.67,15.23-51.23,3.86-16.81,4.95-25.98,13.49-34.21,2.97-2.85,11.39-9.99,23.85-10.36,13.56-.39,22.75,7.51,25.15,9.63,8.33,7.37,10.7,16.12,14.43,28.78,0,0,5.94,20.15,14.7,46.79,11.85,36.04,46.57,56.15,56.95,62.15,29.76,17.25,56.61,17.27,98.25,16.54,51.58-.92,87.59-1.55,113.59-27.71,18.95-19.06,28.26-47.33,29.25-50.44,7.02-21.95,9.34-44.15,9.34-44.15.25-13.84,2.9-29.15,10.34-44.16.61-1.21,1.23-2.4,1.87-3.56,1.19-1.32,2.36-2.63,3.53-3.95h-.01Z"/>
        <path class="cls-4" d="m885.87,1180.44c-13.5,8.6-28.26,16.63-44.03,23.09-6.82,2.8-16.78,6.51-24,2-17.07-10.65-3.8-57.8-2-64-22.36,1.66-46.07,2.74-71,3-28.25.3-54.98-.48-80-2,7.33,16.87,9.43,31.29,10,41,.66,11.31,1.12,21.38-5,26-5.52,4.17-13.88,2.02-25-2-21.08-7.6-35.91-16.06-50.1-24.31-2.79-9.34-9.34-36.09,2.88-64.51,7.52-17.49,18.95-28.19,23.51-32.35,16.41-14.98,33.34-20.29,37.69-21.57,16.67-4.88,21.68-1.07,37.93-4.57,10.68-2.29,25.76-7.64,42.69-21.64,18.23,13.32,34,17.78,45.29,19.33,12.09,1.65,16.77-.36,31.04,2.53,7.75,1.57,21.82,4.57,36.22,14.46,19.39,13.33,27.93,31.59,30.56,37.55,13.68,30.75,5.93,59.53,3.32,67.99Z"/>
        <path class="cls-4" d="m1151.32,720.11c-12.75,65.34-15.63,66.27-19.34,75.39-9.14,22.38-19.63,39.72-27.66,51.52,1.17-75.85.82-112.97.13-132.51-.07-1.99-.24-6.66-.03-13v-.43s0-.02.02-.02c0-.29,0-.58.02-.89v-.02c.16-3.88.53-9.3,1.58-16.39v-.02c1.57-10.6,4.65-24.92,10.83-43.33.9-2.69,1.76-5.23,2.57-7.62h0c6.8-20.02,10.83-29.8,16.79-30.29,9.58-.78,18.1,19.96,19.75,24.13,4.79,12.22,7.96,28.88-4.66,93.48h0Z"/>
        <path class="cls-2" d="m398.16,398.62c-1.33,2.29-2.56,4.62-3.71,7h0c-7.88,16.37-11.75,34.63-18.59,51.52-8.91,21.99-12.31,39.71-19.12,75.17-7.07,36.8-10.17,74.08-11.33,105.99-.5,13.78-.64,26.55-.59,37.86.08,16.95.61,30.59,1.02,39.37-.12-.48-.23-.98-.35-1.47v-.02c-3.88-16.7-7.69-36.83-10.29-59.85h0c-2.18-19.3-3.51-40.62-3.3-63.66.27-31.12.65-69.01,14.08-115,7.82-26.78,23.53-68.19,56.97-112.29.43-.57.86-1.14,1.3-1.71.52,1.79,1.24,4.7,1.52,8.33,1.07,13.87-7.61,28.76-7.61,28.76h0Z"/>
        <path class="cls-2" d="m1109.76,636.95c-.63-9.24-2.54-16.91-4.42-22.57h-.01c-12.48-4.05-30.42-9.29-52.39-13.71-66.72-13.43-120.26-9.04-147.12-6.8-109.31,9.12-105.1,33.37-178.53,32.67-64.79-.62-57.69-19.4-150.4-25.75-30.6-2.1-84.86-5.95-152.89,8.29-19.79,4.14-46.91,11.09-78.28,23.27-.11,1.97-.22,3.95-.32,5.95-.24,4.88-.43,9.85-.57,14.91-.22,7.82-.3,15.43-.27,22.84.08.03.16.07.25.11,3.76,1.59,9.36,4.52,14.33,9.9,7.46,8.07,9.46,17.28,10.31,20.85,3.51,14.67,12.27,51.27,22.08,71.67,14.15,29.47,39.53,44.04,43.7,46.36,19.47,10.84,37.65,12.13,64.22,14.04,13.82.99,26.87.39,52.99-.8,22.24-1.01,33.36-1.52,41.95-3.63,24.34-5.98,41.65-18.3,50.62-25.76,21.68-18.03,31.39-38.24,33.37-42.5,6.88-14.81,10.74-31.67,15.23-51.23,3.86-16.81,4.95-25.98,13.49-34.21,2.97-2.85,11.39-9.99,23.85-10.36,13.56-.39,22.75,7.51,25.15,9.63,8.33,7.37,10.7,16.12,14.43,28.78,0,0,5.94,20.15,14.7,46.79,11.85,36.04,46.57,56.15,56.95,62.15,29.76,17.25,56.61,17.27,98.25,16.54,51.58-.92,87.59-1.55,113.59-27.71,18.95-19.06,28.26-47.33,29.25-50.44,7.02-21.95,9.34-44.15,9.34-44.15.25-13.84,2.9-29.15,10.34-44.16.61-1.21,1.23-2.4,1.87-3.56,1.19-1.32,2.36-2.63,3.53-3.95h.01c1.13-5.95,2.05-13.99,1.4-23.46h0Zm-432.06,50.84c-1.42,36.35-2.31,58.66-16.77,82.26-13.39,21.85-31.3,33.2-38.44,37.58-29.35,18.02-58.01,18.4-93.73,18.41-47.5.01-71.2-.06-93.38-15.17-41.19-28.03-45.37-81.41-46.26-92.76-1.4-17.95-4.17-52.88,17.85-77.27,18.72-20.74,49.76-21.67,111.66-23.68,0,0,43.88-1.41,101.17,10.49,29.62,6.16,46.37,12.5,54.41,27.19,1.91,3.5,4.42,9.45,3.49,32.95h0Zm402.06,19.99c-.56,11.37-3.14,64.84-43.47,94.1-21.72,15.76-45.41,16.54-92.88,17.95-35.71,1.06-64.37,1.54-94.25-15.59-7.25-4.16-25.5-14.97-39.54-36.41-15.17-23.16-16.71-45.44-19.23-81.73-1.63-23.45.7-29.48,2.52-33.04,7.58-14.92,24.13-21.76,53.56-28.8,56.9-13.61,100.81-13.51,100.81-13.51,61.94.15,92.98.15,112.32,20.32,22.72,23.72,21.02,58.72,20.16,76.71h0Z"/>
        <path class="cls-2" d="m1100.64,916.16c-.49,18.22-.41,33.05-.34,44.01.09,13.63.31,24.33.45,30,1.69,71.35,5.86,81.82,1.67,110.99-3.48,24.19-9.9,41.55-11.3,45.29-9.39,24.94-21.27,41.17-43.98,70.55-38.91,50.33-56.93,71.86-56.93,71.86-43.87,52.39-65.79,78.59-80.63,92.21-32.22,29.59-60.25,53.95-103.33,64.42-23.22,5.64-46.67,6.15-65.51,6.56-32.36.7-48.54,1.06-67.54-4.11-36.63-9.96-64.54-33-94.78-57.95-4.35-3.59-7.85-6.6-14.84-12.65-35.07-30.38-60.05-55.17-70.32-65.42-113.74-113.54-125.36-142.64-130.07-158.97-6.81-23.63-8.51-44.51-8.51-44.51-1.85-22.69,1.31-29.94,1.54-63.36.05-6.84-.57-21.16-1.8-49.8-1.39-32.46-2.09-48.69-3.67-65.89-.1-1.19-1.18-12.88-3.42-36.26-.61-6.31-1.2-12.62-1.8-18.94-.19-2.08-.37-4.67-.53-7.85-.98-19.75-1.12-62.34.8-148.92,0-.63.03-1.26.04-1.89.03,1.1.06,2.4.1,3.8.14,4.62.3,10.4.41,14.46.05,1.96.11,3.89.17,5.79.97,34.95,1.76,60.84,5.13,82.5,1.53,9.82,3.33,17.05,4.36,20.93.44,1.65,2.21,8.23,5.29,16.91,3.02,8.56,5.75,14.71,6.26,15.9,4.3,9.88,29.43,97.74,37.06,121.39,6.84,21.18,17.95,55.57,46.5,88.23,11.24,12.85,27.43,24.23,59.8,46.99,10.94,7.69,20.93,13.83,27.07,17.67.23.15.46.29.68.43,18.45,11.57,21.38,12.54,53.17,31,.96.56,1.93,1.12,2.9,1.69,14.19,8.25,29.02,16.71,50.1,24.31,11.12,4.02,19.48,6.17,25,2,6.12-4.62,5.66-14.69,5-26-.57-9.71-2.67-24.13-10-41,25.02,1.52,51.75,2.3,80,2,24.93-.26,48.64-1.34,71-3-1.8,6.2-15.07,53.35,2,64,7.22,4.51,17.18.8,24-2,15.77-6.46,30.53-14.49,44.03-23.09,24.52-15.63,44.86-33.14,59.41-46.54,3.54-3.26,6.75-6.28,9.58-8.97,30.68-29.07,46.02-43.61,58.01-58.99,15.4-19.74,33.37-42.79,45.71-76.78,16.59-45.71,14.61-82.16,24.87-126.44,3-12.95,5.72-23.46,7.49-30.13,2.18-9.94,4.08-18.74,5.5-30.1.16-1.4.31-2.66.44-3.94.97-9.75,1.24-17.07,1.33-19.99.02-.54.02-.92.03-1.02.16-6.2,1.68-26.44,6.18-76.42v.39c.18,8.51.33,15.45.42,20.02,0,0,1.58,79.78-.52,125.49-.25,5.3-.54,10.15-.88,14.36-.02.2-.15,1.58-.3,3.46-.26,3.37-.66,8.74-1.04,15.3-.33,5.98-.54,10.82-.76,16.01-.11,3.03-.46,11.22-.7,20.01h0Z"/>
        <path class="cls-2" d="m945.28,1133.9c-.09,2.4-.26,4.61-.44,6.63-4.65,6.55-12.35,15.71-24,24-13.57,9.65-26.67,13.96-35,16,0-.03.02-.06.03-.09,2.61-8.46,10.36-37.24-3.32-67.99-2.63-5.96-11.17-24.22-30.56-37.55-14.4-9.89-28.47-12.89-36.22-14.46-14.27-2.89-18.95-.88-31.04-2.53-11.29-1.55-27.06-6.01-45.29-19.33-16.93,14-32.01,19.35-42.69,21.64-16.25,3.5-21.26-.31-37.93,4.57-4.35,1.28-21.28,6.59-37.69,21.57-4.56,4.16-15.99,14.86-23.51,32.35-12.22,28.42-5.67,55.17-2.88,64.51.04.11.07.21.1.31-5.85.56-17.32.86-30.32-4.31-14.37-5.72-22.95-15.06-26.68-19.69,0-3.23.04-6.38.15-9.43.62-17.53,3.07-31.99,5.45-42.58,3.84-17.12,7.84-35.51,21.18-55.32,6-8.92,14.6-21.68,30.53-31.46,14.18-8.7,18.63-5.5,38.8-13.58,32.62-13.08,31.69-25.76,50.59-27.76,23.71-2.51,28.24,17.13,54.25,16.19,25.45-.92,28.69-20,51.73-18.78,19.81,1.05,19.5,15.27,50.36,24.25,20.5,5.96,26.1,1.28,42.15,9.37,13.57,6.84,21.45,16.18,29.39,25.56,6.95,8.24,19.1,24.56,26.75,49.61,5.81,19.06,6.64,36.03,6.11,48.3Z"/>
        <g>
          <path class="cls-4" d="m1105.34,614.38c-12.48-4.05-30.42-9.29-52.39-13.71-66.72-13.43-120.26-9.04-147.12-6.8-109.31,9.12-105.1,33.37-178.53,32.67-64.79-.62-57.69-19.4-150.4-25.75-30.6-2.1-84.86-5.95-152.89,8.29-19.79,4.14-46.91,11.09-78.28,23.27-.11,1.97-.22,3.95-.32,5.95,1.16-31.91,4.26-69.19,11.33-105.99,6.81-35.46,10.21-53.18,19.12-75.17,6.84-16.89,10.71-35.15,18.59-51.51h0c14.27-17.4,38.99-42.36,76.36-57.84,38.25-15.84,71.39-14.12,121.39-10.97,87.18,5.5,89.84,22.83,151.12,21.04,17.37-.51,52.62-7.05,123.1-20.13,62.08-11.52,82.89-17.19,110.45-6.78,37.28,14.09,62.76,44.09,62.76,44.09,4.26,5.04,7.26,9.24,9.08,11.84,13.41,19.09,18.81,36.28,25.9,59.62,8.53,28.04,7.44,36.79,15.27,84.78,6.35,38.88,12.01,63.47,15.46,83.1h0Z"/>
          <path class="cls-2" d="m1108.44,310.48s-22.46-80.63-55.69-90.75c-4.33-1.32-15.35-4.68-24.52.71-6.92,4.06-10.46,11.72-12.86,16.92-2.08,4.49-3.38,9.02-5.89,18.09-3.94,14.21-4.08,17.54-6.65,26.11-1.64,5.45-4.35,13.36-8.91,22.63,3.02-11.92,7.07-28.93,11.14-49.67h0c2.22-12.18,3.93-21.37,4.07-22.06,1.51-7.33,10.42-100.87-52.13-172.41-8.66-9.91-20.12-22.35-39.23-33.03-32.14-17.97-64.28-18.46-82.33-17.04-47.25-16.8-92.27-7.97-107.6-4.96-32.03,6.28-56.51,18.49-72.01,27.79-11.11,1.42-24.56,4.25-38.96,9.69-52.01,19.66-79.54,59.51-89.46,75.86-3.74,2.14-7.16,4.33-10.18,6.51-1.34.98-2.38,1.75-3.07,2.28-24.31,18.32-41.11,43.45-44.1,48.23-8.78,9.19-15.55,22.37-24.54,38.48-15.65,28.03-21.07,52.79-30.13,92.38-3.74,16.35-7.97,35.47-12.44,57-2.76,13.24-5.61,27.39-8.5,42.38,14.27-17.39,38.99-42.35,76.36-57.83,38.25-15.84,71.39-14.12,121.39-10.97,87.18,5.5,89.84,22.83,151.12,21.04,17.37-.51,52.62-7.05,123.1-20.13,62.08-11.52,82.89-17.19,110.45-6.78,37.28,14.09,62.76,44.09,62.76,44.09,4.26,5.04,7.26,9.24,9.08,11.84,13.41,19.09,18.81,36.28,25.9,59.62,8.53,28.04,7.44,36.79,15.27,84.78,6.35,38.88,12.01,63.47,15.46,83.1,3.01,17.04,4.35,30.34,3.02,46.03-.04.53-.09,1.06-.13,1.6-.27,2.76-1.28,12.61-2.19,21.73v.02c-.72,7.19-1.39,13.93-1.58,16.39v.02c-.01.18-.02.35-.03.48v.43s0,0,.02-.02c4.75-18.3,10.12-41.37,15-68.27h0c.5-2.77,1-5.57,1.5-8.41.69-4.12,7.26-42.76,10.34-81.22,2.54-31.58,7.43-124-22.84-232.68h-.01ZM474.22,171.46c1.42-1.22,3.16-2.56,5.1-3.71.06-.04.12-.07.19-.11-1.86,1.14-3.62,2.41-5.29,3.82h0Z"/>
        </g>
        <path class="cls-2" d="m346.65,868.8c-.54-.79-1.09-1.61-1.65-2.46-7.79-11.7-17.49-28.19-26-49.06-1.06-2.58-2.05-4.51-3.21-7.43-8.54-21.44-12.25-42.5-16.15-67.96-5.67-37.05-6.92-47.21-7.29-61.97-.53-21.33,1.26-32.32,9.16-39.45,5.66-5.1,15.35-9.03,22.59-5.65,5.9,2.77,8.05,9.43,11.09,19.33v.03h0c2.4,7.82,2.38,11.36,4.19,23.61,2.93,19.92,4.7,22.33,6.1,36.25v.02c.03.29.06.59.09.89.08.84.15,1.67.22,2.47.05.65.1,1.29.14,1.91.54,7.15.56,12.74.57,16.96,0,1.06,0,2.16,0,3.29.06,26.67.14,71.91.13,129.22h.01Z"/>
      </g>
    </g>
  </g>
</svg>