<svg width="64" height="64" viewBox="0 0 64 64" fill="none" xmlns="http://www.w3.org/2000/svg">
<g clip-path="url(#clip0_198_3777)">
<path d="M32 0C14.3261 0 0 14.3261 0 32C0 49.6739 14.3261 64 32 64C49.6739 64 64 49.6739 64 32C64 14.3261 49.6739 0 32 0ZM32 59C17.0879 59 5 46.9121 5 32C5 17.0879 17.0879 5 32 5C46.9121 5 59 17.0879 59 32C59 46.9121 46.9121 59 32 59Z" fill="#252631" stroke="#252631" stroke-width="0.125"/>
<path fill-rule="evenodd" clip-rule="evenodd" d="M17.0117 45.9863H23.0117V21.9863H17.0117V45.9863ZM41.0117 21.9863C35.875 22.0723 33.3477 25.8165 33.0117 25.9863V21.9863H27.0117V45.9863H33.0117V31.9863C33.0117 31.4727 34.2773 27.3613 39.0117 27.9863C41.5547 28.1523 42.9257 31.5156 43.0117 31.9863V45.9863L48.9882 46.0137V29.3985C48.7773 27 47.5781 22.0722 41.0117 21.9863ZM20.0117 13.9863C18.3555 13.9863 17.0117 15.3281 17.0117 16.9863C17.0117 18.6446 18.3555 19.9863 20.0117 19.9863C21.668 19.9863 23.0117 18.6446 23.0117 16.9863C23.0117 15.3281 21.668 13.9863 20.0117 13.9863Z" fill="#7F88FE" stroke="#7F88FE" stroke-width="0.125"/>
</g>
<defs>
<clipPath id="clip0_198_3777">
<rect width="64" height="64" fill="white"/>
</clipPath>
</defs>
</svg>
