<svg width="32" height="32" viewBox="0 0 32 32" fill="none" xmlns="http://www.w3.org/2000/svg">
<path d="M10.4258 9.85498C10.84 9.85498 11.1758 9.51919 11.1758 9.10498C11.1758 8.69077 10.84 8.35498 10.4258 8.35498C10.0116 8.35498 9.67578 8.69077 9.67578 9.10498C9.67578 9.51919 10.0116 9.85498 10.4258 9.85498Z" fill="#1B1F22"/>
<path d="M10.4258 11.2866V21.2733" stroke="#1B1F22" stroke-linecap="round" stroke-linejoin="round"/>
<path d="M22.0733 21.2735V14.8668C22.0715 13.8383 21.6622 12.8524 20.9349 12.1252C20.2077 11.3979 19.2218 10.9886 18.1933 10.9868C17.1637 10.9868 16.1761 11.3954 15.4474 12.1228C14.7187 12.8503 14.3084 13.8372 14.3066 14.8668V21.2735" stroke="#1B1F22" stroke-linecap="round" stroke-linejoin="round"/>
<path d="M14.3066 14.8666V11.2866" stroke="#1B1F22" stroke-linecap="round" stroke-linejoin="round"/>
<path d="M25.8108 5H6.18919C5.8738 5 5.57132 5.12529 5.34831 5.34831C5.12529 5.57132 5 5.8738 5 6.18919V25.8108C5 26.1262 5.12529 26.4287 5.34831 26.6517C5.57132 26.8747 5.8738 27 6.18919 27H25.8108C26.1262 27 26.4287 26.8747 26.6517 26.6517C26.8747 26.4287 27 26.1262 27 25.8108V6.18919C27 5.8738 26.8747 5.57132 26.6517 5.34831C26.4287 5.12529 26.1262 5 25.8108 5Z" stroke="#1B1F22" stroke-linecap="round" stroke-linejoin="round"/>
</svg>
