<svg width="36" height="36" viewBox="0 0 36 36" fill="none" xmlns="http://www.w3.org/2000/svg">
<path id="Subtract" fill-rule="evenodd" clip-rule="evenodd" d="M2 0C0.895431 0 0 0.895431 0 2V34C0 35.1046 0.895431 36 2 36H34C35.1046 36 36 35.1046 36 34V2C36 0.895431 35.1046 0 34 0H2ZM11.7528 12.9957V27.9829H8V12.9957H11.7528ZM18.2108 15.2938C18.758 14.7054 20.3061 13.0409 23.011 12.9957C27.118 13.0494 27.8681 16.1266 28 17.6243V28L24.2619 27.9829V19.2404C24.2082 18.9464 23.3506 16.8462 21.7601 16.7425C18.7989 16.3522 18.0073 18.9196 18.0073 19.2404V27.9829H14.2546V12.9957H18.0073V15.4936C18.0406 15.4768 18.108 15.4043 18.2108 15.2938ZM8 9.8734C8 8.83788 8.84046 8 9.87638 8C10.9123 8 11.7528 8.83788 11.7528 9.8734C11.7528 10.9089 10.9123 11.7468 9.87638 11.7468C8.84046 11.7468 8 10.9089 8 9.8734Z" fill="#7F88FE"/>
</svg>
