          <svg
            id="b"
            xmlns="http://www.w3.org/2000/svg"
            viewBox="0 0 875.16 926.54"
          >
            <defs>
              <style>
                .d {
                  fill: #f2cb0c;
                }
              </style>
            </defs>
            <g id="c">
              <circle class="d" cx="236.91" cy="509.85" r="79.97" />
              <circle class="d" cx="437.68" cy="678.21" r="79.97" />
              <circle class="d" cx="158.53" cy="678.21" r="79.97" />
              <circle class="d" cx="79.97" cy="846.57" r="79.97" />
              <path
                class="d"
                d="m875.16,846.57c0,44.17-35.81,79.97-79.97,79.97-27.59,0-51.92-13.97-66.29-35.23l-.02-.03-10.62-22.79v-.03s-235.88-505.81-235.88-505.81c-17.71-37.98-71.71-37.98-89.42,0h0s-6.58,14.12-6.58,14.12c-6.95,14.91-18.31,27.46-32.81,35.23-11.24,6.03-24.09,9.45-37.73,9.45-44.17,0-79.97-35.8-79.97-79.96,0-.83.01-1.66.04-2.48.33-10.85,3.11-21.5,7.7-31.34l2.47-5.29,104.1-223.25,12.26-26.28,3.03-6.51c5.85-12.56,14.67-23.59,25.96-31.62,13.05-9.27,29.01-14.72,46.24-14.72s33.18,5.44,46.23,14.71c11.29,8.01,20.1,19.04,25.96,31.58l3.09,6.61,12.23,26.23,338.98,726.93,3.46,7.42c4.5,9.66,7.21,20.11,7.52,30.76.02.77.03,1.55.03,2.33Z"
              />
            </g>
          </svg>