<svg width="32" height="32" viewBox="0 0 32 32" fill="none" xmlns="http://www.w3.org/2000/svg">
<path d="M8.92667 8.1001V25.6934H4.70667C4.25633 25.6934 3.82424 25.5155 3.50456 25.1983C3.18488 24.8811 3.00352 24.4504 3 24.0001V11.2134" stroke="#1B1F22" stroke-miterlimit="10"/>
<path d="M23.0742 8.1001V25.6934H27.2942C27.7446 25.6934 28.1766 25.5155 28.4963 25.1983C28.816 24.8811 28.9974 24.4504 29.0009 24.0001V11.2134" stroke="#1B1F22" stroke-miterlimit="10"/>
<path d="M16 20.9669L29 11.3336V8.93358C28.9988 8.44803 28.863 7.97232 28.6077 7.55927C28.3525 7.14623 27.9877 6.81203 27.554 6.59378C27.1203 6.37553 26.6345 6.28178 26.1507 6.32293C25.6669 6.36408 25.204 6.53854 24.8133 6.82691L16 13.3736L7.18667 6.82691C6.79602 6.53854 6.3331 6.36408 5.84929 6.32293C5.36549 6.28178 4.87974 6.37553 4.446 6.59378C4.01227 6.81203 3.64751 7.14623 3.39225 7.55927C3.13699 7.97232 3.00121 8.44803 3 8.93358V11.3336L16 20.9669Z" stroke="#1B1F22" stroke-miterlimit="10"/>
</svg>
