<svg width="64" height="64" viewBox="0 0 64 64" fill="none" xmlns="http://www.w3.org/2000/svg">
<g clip-path="url(#clip0_198_3771)">
<path fill-rule="evenodd" clip-rule="evenodd" d="M32 0C14.3261 0 0 14.3261 0 32C0 49.6739 14.3261 64 32 64C49.6739 64 64 49.6739 64 32C64 14.3261 49.6739 0 32 0ZM32 59C17.0879 59 5 46.9121 5 32C5 17.0879 17.0879 5 32 5C46.9121 5 59 17.0879 59 32C59 46.9121 46.9121 59 32 59Z" fill="#252631"/>
<path fill-rule="evenodd" clip-rule="evenodd" d="M17 16L26.1426 48L35.2853 41.5996L42.1426 48V37.334L49 30.9336L17 16ZM37.5723 37.334L25.4004 25.5996L37.5723 35.1992V37.334Z" fill="#7F88FE"/>
</g>
<defs>
<clipPath id="clip0_198_3771">
<rect width="64" height="64" fill="white"/>
</clipPath>
</defs>
</svg>
