<?xml version="1.0" encoding="UTF-8"?>
<svg id="Layer_2" data-name="Layer 2" xmlns="http://www.w3.org/2000/svg" viewBox="0 0 384 384">
  <defs>
    <style>
      .cls-1 {
        fill: #d32e5d;
      }
    </style>
  </defs>
  <g id="Layer_2-2" data-name="Layer 2">
    <g id="Layer_1-2" data-name="Layer 1-2">
      <g>
        <path class="cls-1" d="M204.35,0c1.63,.21,3.27,.41,4.9,.61,3.27,.39,6.54,.77,9.8,1.23,1.63,.23,3.25,.48,4.87,.75,35.99,6.15,67.84,21.19,95.11,45.46,6.25,5.56,12.06,11.38,17.43,17.45,1.79,2.02,3.53,4.07,5.22,6.15-1.69-2.08-3.43-4.13-5.22-6.15-5.37-6.07-11.18-11.88-17.43-17.45-27.27-24.27-59.12-39.31-95.11-45.46-1.62-.28-3.24-.53-4.87-.75-3.26-.46-6.53-.84-9.8-1.23-1.63-.2-3.27-.39-4.9-.61H0V384H383.99V203.68s0-.06,0-.08V0H204.35Zm169.7,130.74c.84,2.56,1.64,5.14,2.38,7.75-.74-2.61-1.54-5.2-2.38-7.75-2.53-7.67-5.52-15.08-8.95-22.25,3.44,7.16,6.42,14.58,8.95,22.25Zm-12.54-29.32c-3.11-5.83-6.54-11.48-10.27-16.96,3.73,5.48,7.16,11.13,10.27,16.96Zm-169.04,3.13h0c32.3,0,64.61,.32,96.9-.15,16.48-.24,26.77,12.12,26.63,26.61-.4,40.4-.4,80.82,0,121.22,.14,14.47-10.12,26.7-26.64,26.61-64.72-.33-129.45-.13-194.18-.14-16.45,0-26.3-9.86-26.3-26.28v-121.6c0-16.42,9.85-26.27,26.31-26.27,32.43-.01,64.85,0,97.28,0ZM39.66,75.98C20.8,100.47,8.56,128.43,3.49,159.84c5.07-31.41,17.3-59.37,36.17-83.86Zm.19,231.26C10.91,268.94-1.92,226.29,1.18,179.93c-3.11,46.36,9.72,89.01,38.68,127.31,10.14,13.42,21.44,25.17,33.88,35.17-12.44-10-23.75-21.76-33.89-35.17Zm112.98,71.69c-3.72-.73-7.37-1.58-10.97-2.51,3.61,.93,7.26,1.77,10.98,2.51,14.93,2.95,29.44,4.37,43.51,4.28-14.07,.09-28.58-1.34-43.52-4.28Zm229.08-215.08c.52,3.5,.95,7.02,1.4,10.53-.45-3.51-.88-7.03-1.4-10.53Z"/>
        <path class="cls-1" d="M296.03,134.39v116.85c0,6.98-.75,7.72-7.72,7.72H95.97c-6.27,0-7.24-.93-7.24-7.06v-113.01c0-1.2,.1-2.4,.18-4.32,3.91,3.07,7.31,5.71,10.68,8.39,28.42,22.56,56.83,45.14,85.24,67.71,5.5,4.37,9.56,4.39,15.11-.02,30.28-24.03,60.55-48.07,90.82-72.11,1.45-1.15,2.91-2.29,5.26-4.15h0Z"/>
        <path class="cls-1" d="M108.45,124.44h167.77c-1.19,1.1-1.9,1.87-2.72,2.51-26.17,20.79-52.36,41.55-78.49,62.38-1.84,1.47-3.04,1.77-5.05,.17-26.51-21.16-53.1-42.22-79.66-63.32-.47-.37-.88-.82-1.85-1.74Z"/>
      </g>
    </g>
  </g>
</svg>