<svg width="64" height="64" viewBox="0 0 64 64" fill="none" xmlns="http://www.w3.org/2000/svg">
<g id="search-svgrepo-com(1) 1" clip-path="url(#clip0_641_4007)">
<g id="Group">
<rect id="Rectangle 44135" width="64" height="64" rx="10" fill="#E54D2E"/>
<path id="Vector" d="M33.268 35.484C31.562 35.998 29.812 36.174 28 36L16.332 47.668L29.062 60.398C30.678 62.014 33.322 62.014 34.938 60.398L43.09 52.246L33.268 35.484Z" fill="#F4D6B0"/>
<path id="Vector_2" d="M60.3959 34.9381C62.0119 33.3221 62.0119 30.6781 60.3959 29.0641L47.6659 16.3341L42.9039 21.0961C43.3359 25.5621 41.5859 29.7041 38.4839 32.5181L47.4739 47.8581L60.3959 34.9381Z" fill="#F4D6B0"/>
<path id="Vector_3" d="M29.3319 8.78809C21.0159 8.78809 14.4899 16.5481 15.8879 24.7361C17.0539 31.5721 23.4379 36.5481 30.3499 36.0281C37.8779 35.4621 43.6319 28.6001 42.9039 21.0961C42.2339 14.1881 36.2539 8.78809 29.3319 8.78809Z" fill="#165F0E"/>
<path id="Vector_4" d="M50.8941 53.696L38.4841 32.52C38.1161 32.854 37.7301 33.17 37.3261 33.464L37.3181 33.47C36.1021 34.352 34.7421 35.042 33.2681 35.486L45.7181 56.73C46.2761 57.684 47.2781 58.214 48.3081 58.214C48.8241 58.214 49.3481 58.082 49.8241 57.802C51.2541 56.962 51.7321 55.124 50.8941 53.696Z" fill="#398F2C"/>
<path id="Vector_5" d="M29.3319 8.78809C26.2279 8.78809 23.3759 9.83609 21.0839 11.5821L29.0619 3.60409C30.6779 1.98809 33.3219 1.98809 34.9379 3.60409L47.6679 16.3341L42.9059 21.0961C42.2339 14.1881 36.4159 8.78809 29.3319 8.78809ZM15.6919 22.4281C15.6919 19.3241 16.7399 16.4721 18.4859 14.1801L3.60189 29.0641C1.98589 30.6801 1.98589 33.3241 3.60189 34.9381L16.3319 47.6681L27.9999 36.0001C21.0939 35.3301 15.6919 29.5101 15.6919 22.4281ZM29.3319 30.0661C33.5439 30.0661 36.9719 26.6381 36.9719 22.4261C36.9719 18.2141 33.5459 14.7861 29.3319 14.7861C25.1179 14.7861 21.6919 18.2121 21.6919 22.4261C21.6919 26.6401 25.1199 30.0661 29.3319 30.0661Z" fill="#F8AD89"/>
</g>
</g>
<defs>
<clipPath id="clip0_641_4007">
<rect width="64" height="64" fill="white"/>
</clipPath>
</defs>
</svg>
