<svg width="32" height="32" viewBox="0 0 32 32" fill="none" xmlns="http://www.w3.org/2000/svg">
<g id="download-icon 4">
<g id="SVGRepo_iconCarrier">
<path id="Vector" d="M10.284 28.7886L10.6379 28.4354C10.612 28.4094 10.5914 28.3786 10.5774 28.3446C10.5634 28.3107 10.5562 28.2744 10.5562 28.2377L10.5562 28.2372L10.5562 19.2616L10.5562 18.7616L10.0562 18.7616L4.82871 18.7616C4.72062 18.7616 4.62404 18.7015 4.57661 18.606L4.57635 18.6055C4.52917 18.5107 4.53982 18.3956 4.60448 18.3104L4.6045 18.3104L15.7755 3.58501L15.7756 3.58496C15.8018 3.55033 15.8358 3.52224 15.8747 3.50291C15.9136 3.48357 15.9565 3.47351 16 3.4735L15.9999 2.9735M10.284 28.7886L10.6375 28.435C10.6912 28.4887 10.7639 28.5185 10.8375 28.5186C10.8375 28.5186 10.8375 28.5186 10.8375 28.5186L21.0868 28.5165L21.0869 28.5165C21.2421 28.5165 21.3682 28.3903 21.3682 28.2351L21.3682 19.2616L21.3682 18.7616L21.8682 18.7616L27.1749 18.7616C27.2831 18.7616 27.3796 18.7015 27.4271 18.6059L27.4274 18.6052C27.4746 18.5106 27.464 18.3957 27.3993 18.3104C27.3993 18.3104 27.3993 18.3104 27.3993 18.3104L16.2258 3.58521C16.2256 3.58495 16.2254 3.58469 16.2252 3.58443C16.1986 3.55007 16.1646 3.52222 16.1257 3.503C16.0864 3.48363 16.0433 3.47354 15.9995 3.4735L15.9999 2.9735M10.284 28.7886C10.4306 28.9351 10.63 29.0186 10.8375 29.0186L9.55619 19.2616L10.0562 19.2616L10.0562 19.7616L10.0562 28.2372C10.0561 28.3396 10.0762 28.441 10.1153 28.5356C10.1544 28.6302 10.2117 28.7162 10.284 28.7886ZM15.9999 2.9735C15.8793 2.97352 15.7603 3.00145 15.6523 3.05511C15.5442 3.10878 15.4501 3.18671 15.3772 3.28281M15.9999 2.9735C16.1203 2.9736 16.239 3.00136 16.347 3.05464C16.4549 3.10793 16.5492 3.18532 16.6225 3.28083L27.7976 18.0082C27.9767 18.2443 28.0072 18.5626 27.8749 18.8282L15.3772 3.28281M15.3772 3.28281L4.20616 18.0082C4.02705 18.2443 3.99655 18.5627 4.12873 18.8282L15.3772 3.28281Z" stroke="black"/>
<path id="Vector_2" d="M15.9984 6L7 18L10.5 18C11.287 18 11.287 18.0087 11.287 18.4635L11.287 27C12.6021 26.9989 19.3137 26.9978 20.6289 26.9978L20.6289 18.4635C20.6289 18.0087 20.6289 18 21.5 18L25 18L15.9984 6Z" fill="#7F88FE" stroke="#252631" stroke-width="0.00032"/>
<path id="Vector_3" d="M26 18C24.4421 15.9761 17.0491 6.36735 15.9979 5C14.9465 6.36735 7.55782 15.9761 6 18L7.36812 18L15.9979 6.77091L24.6318 18L26 18Z" fill="#A7E3AB" stroke="#252631" stroke-width="0.00032"/>
<path id="Vector_4" d="M21 28L11 28L11 27L21 27L21 28Z" fill="#A7E3AB" stroke="#252631" stroke-width="0.00032"/>
</g>
</g>
</svg>
