<svg width="64" height="64" viewBox="0 0 64 64" fill="none" xmlns="http://www.w3.org/2000/svg">
<g clip-path="url(#clip0_198_3759)">
<path d="M32 0C14.3261 0 0 14.3261 0 32C0 49.674 14.3261 64 32 64C49.674 64 64 49.674 64 32C64 14.3261 49.674 0 32 0ZM32 59C17.0879 59 5 46.9122 5 32C5 17.0879 17.0879 5 32 5C46.9122 5 59 17.0879 59 32C59 46.9122 46.9122 59 32 59Z" fill="#252631"/>
<path d="M48.9999 21.3652C48.4608 21.6855 46.8439 22.3241 45.3358 22.4844C46.3028 21.923 47.7343 20.084 48.0878 18.6231C47.1584 19.2618 45.0233 20.1934 43.969 20.1934C43.969 20.1934 43.969 20.1962 43.971 20.1982C42.7675 18.8437 41.0759 18 39.197 18C35.5528 18 32.5958 21.1826 32.5958 25.1094C32.5958 25.6544 32.6559 26.1837 32.7654 26.6934H32.7633C27.818 26.5566 22.0369 23.8876 18.779 19.3184C16.779 23.0499 18.5095 27.1991 20.7809 28.711C20.0055 28.7755 18.572 28.6153 17.8983 27.9101C17.8514 30.3848 18.9588 33.6661 22.9901 34.8555C22.2125 35.3067 20.8414 35.1779 20.2421 35.0781C20.453 37.1719 23.1718 39.906 26.1424 39.906C25.0836 41.2227 21.4708 43.6192 16.9998 42.8555C20.0371 44.8477 23.578 46 27.3259 46C37.9765 46 46.2479 36.7051 45.8026 25.2384C45.8026 25.2246 45.7988 25.211 45.7988 25.1992C45.7988 25.168 45.8026 25.1367 45.8026 25.1094C45.8026 25.0743 45.7988 25.0391 45.7988 25.002C46.7675 24.291 48.0681 23.0292 48.9999 21.3652Z" fill="#7F88FE"/>
</g>
<defs>
<clipPath id="clip0_198_3759">
<rect width="64" height="64" fill="white"/>
</clipPath>
</defs>
</svg>
