<svg width="36" height="36" viewBox="0 0 36 36" fill="none" xmlns="http://www.w3.org/2000/svg">
<path id="Subtract" fill-rule="evenodd" clip-rule="evenodd" d="M2 0C0.895431 0 0 0.895431 0 2V34C0 35.1046 0.895431 36 2 36H34C35.1046 36 36 35.1046 36 34V2C36 0.895431 35.1046 0 34 0H2ZM25.71 11.8027C26.6526 11.7026 27.6631 11.3034 28.0001 11.1033C27.4177 12.1433 26.6048 12.9319 25.9994 13.3763C25.9994 13.388 26 13.3995 26.0006 13.4107C26.0012 13.4217 26.0018 13.4325 26.0018 13.4434C26.0018 13.4516 26.0012 13.4605 26.0006 13.4696C26 13.4794 25.9994 13.4894 25.9994 13.4995C25.9994 13.5031 25.9999 13.5069 26.0005 13.5108C26.0011 13.5151 26.0018 13.5195 26.0018 13.524C26.2801 20.6907 21.1105 26.5 14.4538 26.5C12.1114 26.5 9.89836 25.7798 8 24.5347C10.7944 25.012 13.0524 23.5142 13.7141 22.6912C11.8575 22.6912 10.1583 20.9824 10.0265 19.6738C10.401 19.7362 11.258 19.8167 11.744 19.5347C9.22437 18.7913 8.53227 16.7405 8.56156 15.1938C8.98266 15.6345 9.87859 15.7347 10.3632 15.6944C8.94359 14.7495 7.86203 12.1562 9.11203 9.82398C11.1482 12.6798 14.7614 14.3479 17.8522 14.4334H17.8535C17.7851 14.1148 17.7475 13.784 17.7475 13.4434C17.7475 10.9891 19.5956 9 21.8733 9C23.0476 9 24.1048 9.52734 24.857 10.3739C24.8558 10.3727 24.8558 10.3709 24.8558 10.3709C25.5147 10.3709 26.8491 9.78859 27.43 9.38945C27.2091 10.3025 26.3144 11.4519 25.71 11.8027Z" fill="#7F88FE"/>
</svg>
