<svg width="32" height="32" viewBox="0 0 32 32" fill="none" xmlns="http://www.w3.org/2000/svg">
<path d="M25.826 11.0334V11.7001C25.826 18.4134 20.7327 26.1068 11.4127 26.1068C8.66131 26.1127 5.96837 25.3132 3.66602 23.8068C4.06587 23.861 4.4692 23.8856 4.87268 23.8801C7.15335 23.8864 9.36989 23.1256 11.166 21.7201C10.1065 21.7045 9.07879 21.3553 8.22905 20.7222C7.37932 20.0891 6.75075 19.2042 6.43268 18.1934C6.74829 18.2603 7.07006 18.2938 7.39268 18.2934C7.84319 18.2935 8.29166 18.233 8.72602 18.1134C7.5784 17.8846 6.54596 17.2642 5.80535 16.3582C5.06473 15.4522 4.66198 14.3169 4.66602 13.1468V13.0801C5.36815 13.4723 6.15533 13.6874 6.95935 13.7068C5.88908 13.0025 5.12814 11.9161 4.83199 10.6696C4.53585 9.42304 4.72687 8.11049 5.36602 7.00009C6.63952 8.56642 8.22841 9.8472 10.0294 10.7592C11.8304 11.6711 13.8031 12.1939 15.8193 12.2934C15.7195 11.915 15.6724 11.5247 15.6793 11.1334C15.6418 10.0994 15.9239 9.07886 16.4872 8.21086C17.0504 7.34287 17.8675 6.66956 18.8272 6.28263C19.7869 5.8957 20.8425 5.81395 21.8503 6.0485C22.8581 6.28305 23.7691 6.82251 24.4593 7.59342C25.5939 7.36447 26.6822 6.94762 27.6793 6.36009C27.3012 7.55433 26.4967 8.56762 25.4193 9.20676C26.4258 9.06808 27.4069 8.78518 28.3327 8.36676C27.6618 9.39718 26.813 10.3001 25.826 11.0334Z" stroke="#1B1F22" stroke-linecap="round" stroke-linejoin="round"/>
</svg>
