<?xml version="1.0" encoding="UTF-8"?>
<svg id="Layer_2" data-name="Layer 2" xmlns="http://www.w3.org/2000/svg" viewBox="0 0 512 512">
  <defs>
    <style>
      .cls-1 {
        fill: #d32e5d;
      }
    </style>
  </defs>
  <g id="Layer_2-2" data-name="Layer 2">
    <path class="cls-1" d="M0,0V512H512V0H0ZM395.83,171.51c-7.2,7.6-14.23,15.38-21.84,22.55-2.9,2.73-4.36,5-4.36,9.12,.03,44.37-14.79,83.34-44.42,116.21-33.08,36.71-75.23,53.14-124.25,52.9-29.29-.14-56.54-7.82-81.91-22.35-1.3-.75-2.58-1.53-3.84-2.34-.24-.16-.34-.53-.78-1.28,31.06,2.59,58.92-5.13,84.97-24.48-16.84-1.25-30.31-7.03-41.15-18.28-6.08-6.32-10.59-13.61-13.52-22.79h24.23c-28.79-11.27-47.51-35.41-44.45-57.98,7.97,2.24,15.99,4.49,24.02,6.74,.27-.45,.53-.9,.8-1.35-14.21-10.94-22.9-25.01-24.52-42.89-1.09-12.07,1.19-23.52,7.65-34.65,31.75,37.14,71.65,57.73,119.39,61.08,.69-9.49,.13-18.79,2.19-27.47,10.28-43.37,64.1-59.23,96.69-28.78,2.2,2.06,4.09,2.92,7.04,1.85,10.74-3.89,21.55-7.61,32.49-11.44-4.12,12.12-12.21,21.88-23.23,29.51l.73,1.33c9.84-2.68,19.68-5.37,29.82-8.13-.53,.91-.96,2.09-1.75,2.92Z"/>
  </g>
</svg>